<?xml version="1.0" encoding="UTF-8" standalone="no"?>
<!-- Created with Inkscape (http://www.inkscape.org/) -->

<svg
   version="1.1"
   id="svg2"
   width="1122.66"
   height="793.79999"
   viewBox="0 0 1122.66 793.79999"
   sodipodi:docname="Myperro.ai"
   xmlns:inkscape="http://www.inkscape.org/namespaces/inkscape"
   xmlns:sodipodi="http://sodipodi.sourceforge.net/DTD/sodipodi-0.dtd"
   xmlns="http://www.w3.org/2000/svg"
   xmlns:svg="http://www.w3.org/2000/svg">
  <defs
     id="defs6">
    <clipPath
       clipPathUnits="userSpaceOnUse"
       id="clipPath18">
      <path
         d="M 0,0 H 842 V 596 H 0 Z"
         id="path16" />
    </clipPath>
    <clipPath
       clipPathUnits="userSpaceOnUse"
       id="clipPath22">
      <path
         d="M 0,0 H 842 V 596 H 0 Z"
         id="path20" />
    </clipPath>
    <clipPath
       clipPathUnits="userSpaceOnUse"
       id="clipPath26">
      <path
         d="M 0,0 H 842 V 596 H 0 Z"
         id="path24" />
    </clipPath>
    <clipPath
       clipPathUnits="userSpaceOnUse"
       id="clipPath30">
      <path
         d="M 266,235 H 578 V 436 H 266 Z"
         id="path28" />
    </clipPath>
    <clipPath
       clipPathUnits="userSpaceOnUse"
       id="clipPath34">
      <path
         d="M 0,0 H 841.995 V 595.35 H 0 Z"
         id="path32" />
    </clipPath>
    <clipPath
       clipPathUnits="userSpaceOnUse"
       id="clipPath38">
      <path
         d="m 407.79,403.0391 c -6.0283,-1.6066 -17.6057,-8.7149 -17.5457,-16.7198 0.1521,-20.3164 21.6195,-28.0717 22.8825,-28.5629 0.2806,4.2802 1.8966,24.6532 1.8966,24.6532 0,0 -9.0648,1.7442 -9.4019,6.7267 -0.3239,4.7877 9.5793,6.7824 14.4207,6.7779 9.4148,-0.009 13.6885,-2.6089 13.7437,-5.5603 0.1147,-6.1361 -10.1027,-7.6941 -10.1027,-8.1151 0,-0.421 2.3029,-24.2403 2.4432,-24.521 0.0995,-0.199 22.2508,2.5219 26.3636,26.772 1.3155,7.7562 -10.3023,15.4732 -16.6708,17.7076 -3.0998,1.0876 -7.8172,2.0091 -12.5885,2.2898 -4.7713,0.2806 -11.0994,-0.2911 -15.4407,-1.4481 z"
         id="path36" />
    </clipPath>
    <clipPath
       clipPathUnits="userSpaceOnUse"
       id="clipPath42">
      <path
         d="M 0,0 H 841.995 V 595.35 H 0 Z"
         id="path40" />
    </clipPath>
    <clipPath
       clipPathUnits="userSpaceOnUse"
       id="clipPath46">
      <path
         d="M 0,0 H 841.995 V 595.35 H 0 Z"
         id="path44" />
    </clipPath>
    <clipPath
       clipPathUnits="userSpaceOnUse"
       id="clipPath50">
      <path
         d="m 531.0679,299.1951 c -6.0283,-1.6066 -17.6057,-8.7149 -17.5458,-16.7198 0.1522,-20.3163 21.6195,-28.0717 22.8825,-28.5628 0.2807,4.2801 1.8967,24.6531 1.8967,24.6531 0,0 -9.0649,1.7443 -9.4019,6.7267 -0.3239,4.7877 9.5793,6.7824 14.4207,6.778 9.4148,-0.009 13.6885,-2.609 13.7437,-5.5603 0.1147,-6.1361 -10.1027,-7.6941 -10.1027,-8.1151 0,-0.421 2.3028,-24.2404 2.4432,-24.5211 0.0995,-0.199 22.2507,2.522 26.3636,26.772 1.3155,7.7563 -10.3023,15.4732 -16.6708,17.7077 -3.0999,1.0876 -7.8172,2.009 -12.5885,2.2897 -4.7713,0.2807 -11.0994,-0.2911 -15.4407,-1.4481 z"
         id="path48" />
    </clipPath>
    <clipPath
       clipPathUnits="userSpaceOnUse"
       id="clipPath54">
      <path
         d="M 0,0 H 841.995 V 595.35 H 0 Z"
         id="path52" />
    </clipPath>
  </defs>
  <sodipodi:namedview
     id="namedview4"
     pagecolor="#ffffff"
     bordercolor="#000000"
     borderopacity="0.25"
     inkscape:showpageshadow="2"
     inkscape:pageopacity="0.0"
     inkscape:pagecheckerboard="0"
     inkscape:deskcolor="#d1d1d1" />
  <g
     id="g8"
     inkscape:groupmode="layer"
     inkscape:label="Myperro"
     transform="matrix(1.3333333,0,0,-1.3333333,0,793.8)">
    <g
       id="g10" />
    <g
       id="g12">
      <g
         id="g14" />
      <g
         id="g116">
        <g
           clip-path="url(#clipPath18)"
           id="g114">
          <g
             id="g56" />
          <g
             id="g62">
            <g
               clip-path="url(#clipPath22)"
               id="g60">
              <path
                 d="M 0,595.35 H 841.995 V 0 H 0 Z"
                 style="fill:#ffffff;fill-opacity:1;fill-rule:nonzero;stroke:none"
                 id="path58" />
            </g>
          </g>
          <g
             id="g112">
            <g
               clip-path="url(#clipPath26)"
               id="g110">
              <g
                 id="g64" />
              <g
                 id="g108">
                <g
                   clip-path="url(#clipPath30)"
                   id="g106">
                  <g
                     id="g66" />
                  <g
                     id="g76">
                    <g
                       clip-path="url(#clipPath34)"
                       id="g74">
                      <path
                         d="m 412.6371,410.4125 c 5.3129,0.1903 3.5822,12.606 -0.7598,12.0175 -5.0968,-0.6907 -2.7123,-12.1419 0.7598,-12.0175 z m 12.8222,7.7024 c 0,-1.1226 0.2607,-2.9809 1.5099,-3.0421 1.367,-0.067 1.9065,1.6344 2.0469,3.1246 0.1535,1.6283 -0.5846,3.0894 -1.5754,3.1297 -1.443,0.0586 -1.9814,-2.0895 -1.9814,-3.2122 z"
                         style="fill:#323232;fill-opacity:1;fill-rule:nonzero;stroke:none"
                         id="path68" />
                      <path
                         d="m 426.6422,408.8732 c 6.2377,-0.0833 7.8151,6.9459 8.1053,12.9969 0.369,7.6947 -2.191,13.3001 -6.4289,13.4967 -5.1995,0.2411 -7.6055,-7.0916 -7.9332,-13.4823 -0.3313,-6.461 1.561,-12.9487 6.2568,-13.0113 z m 1.205,22.9614 c 2.5836,-0.0649 4.0782,-4.7405 3.9567,-10.1324 -0.1137,-5.0454 -1.4129,-9.5789 -4.7283,-9.2442 -3.8094,0.3846 -3.8294,5.9281 -3.8294,8.5944 0,2.6663 0.5406,10.8843 4.601,10.7822 z"
                         style="fill:#e48654;fill-opacity:1;fill-rule:nonzero;stroke:none"
                         id="path70" />
                      <path
                         d="m 407.79,403.0391 c -6.0283,-1.6066 -17.6057,-8.7149 -17.5457,-16.7198 0.1521,-20.3164 21.6195,-28.0717 22.8825,-28.5629 0.2806,4.2802 1.8966,24.6532 1.8966,24.6532 0,0 -9.0648,1.7442 -9.4019,6.7267 -0.3239,4.7877 9.5793,6.7824 14.4207,6.7779 9.4148,-0.009 13.6885,-2.6089 13.7437,-5.5603 0.1147,-6.1361 -10.1027,-7.6941 -10.1027,-8.1151 0,-0.421 2.3029,-24.2403 2.4432,-24.521 0.0995,-0.199 22.2508,2.5219 26.3636,26.772 1.3155,7.7562 -10.3023,15.4732 -16.6708,17.7076 -3.0998,1.0876 -7.8172,2.0091 -12.5885,2.2898 -4.7713,0.2806 -11.0994,-0.2911 -15.4407,-1.4481 z"
                         style="fill:#e48654;fill-opacity:1;fill-rule:nonzero;stroke:none"
                         id="path72" />
                    </g>
                  </g>
                  <g
                     id="g84">
                    <g
                       clip-path="url(#clipPath38)"
                       id="g82">
                      <g
                         clip-path="url(#clipPath42)"
                         id="g80">
                        <path
                           d="m 403.3884,401.548 c 0,0 -18.0383,-5.0076 -13.1444,-23.1002 2.1306,-7.8767 11.326,-16.653 24.6644,-21.9327 -8.03,5.7665 -32.6893,22.7199 -11.52,45.0329 z"
                           style="fill:#b66b43;fill-opacity:1;fill-rule:nonzero;stroke:none"
                           id="path78" />
                      </g>
                    </g>
                  </g>
                  <g
                     id="g96">
                    <g
                       clip-path="url(#clipPath46)"
                       id="g94">
                      <path
                         d="m 268.6502,309.4841 c -1.1226,-0.8419 -1.8243,-1.6138 -2.105,-2.3154 -0.2806,-0.7017 -0.421,-8.7708 -0.421,-24.2074 0,-15.4366 0.2105,-23.5759 0.6315,-24.4179 0.421,-0.8419 1.3978,-1.8341 3.1575,-2.3154 3.6999,-1.012 6.5956,1.1226 7.157,2.105 0.5613,0.9823 0.842,6.5956 0.842,16.8399 0,5.1221 0,10.2442 0,15.3664 1.9646,-1.8244 3.9293,-3.6487 5.8939,-5.473 3.9293,-3.6487 7.4723,-7.3233 11.1565,-4.8415 0.6786,0.4572 2.6663,2.2453 5.8939,5.473 1.6138,1.6138 3.2277,3.2276 4.8415,4.8415 0,-5.1923 0,-10.3846 0,-15.5769 0,-10.3847 0.6759,-15.2774 1.5417,-16.8396 0.6952,-1.2544 3.1256,-2.6464 6.1912,-1.9904 1.3515,0.2892 2.9232,1.5021 3.213,2.6215 0.3464,1.3381 0.842,9.4023 0.842,24.4179 0,15.0156 -0.1403,22.9444 -0.421,23.7864 -0.2806,0.842 -0.9823,1.684 -2.105,2.5259 -1.1226,0.842 -2.4558,1.1929 -3.9994,1.0525 -1.5437,-0.1403 -5.1923,-3.0171 -10.946,-8.6304 -2.8768,-2.8067 -5.7536,-5.6133 -8.6304,-8.42 -2.3857,2.526 -4.7713,5.052 -7.157,7.578 -4.7713,5.052 -7.7183,7.9288 -8.8409,8.6304 -1.1227,0.7017 -2.2453,1.0525 -3.368,1.0525 -1.1227,0 -2.2453,-0.421 -3.368,-1.263 z m 101.0394,0 c -1.1226,-0.8419 -1.8243,-1.6138 -2.105,-2.3154 -0.2806,-0.7017 -0.421,-8.7007 -0.421,-23.9969 0,-15.2962 0.4865,-23.1748 1.1037,-24.6606 0.9038,-2.1757 2.5209,-2.6903 4.2081,-2.7848 6.4886,-0.3637 6.315,5.6834 6.315,9.8934 0,2.105 0.1612,4.2906 0.1612,6.3956 1.6839,0 3.3682,-0.0323 5.0519,0 10.116,0.1938 14.8051,4.7011 15.7874,5.6834 0.9824,0.9824 2.0349,2.526 3.1575,4.631 1.1227,2.105 1.7542,4.8415 1.8945,8.2095 0.1403,3.3679 -0.421,6.3851 -1.684,9.0514 -1.263,2.6663 -2.6663,4.7011 -4.21,6.1045 -1.5436,1.4033 -2.8768,2.3856 -3.9994,2.947 -1.1227,0.5613 -2.526,1.0524 -4.21,1.4734 -1.684,0.421 -5.3326,0.6315 -10.9459,0.6315 -5.6133,0 -8.9813,-0.421 -10.104,-1.263 z m 9.262,-10.5249 c 1.5436,0 14.4095,2.4284 14.5244,-6.736 0.1207,-9.6316 -12.9808,-8.4199 -14.5244,-8.4199 0,2.526 0,5.052 0,7.578 0,2.5259 0,5.0519 0,7.5779 z m 39.1527,-7.3674 c -1.9646,-0.7017 -3.8591,-1.8244 -5.6834,-3.368 -1.8244,-1.5437 -3.368,-3.6487 -4.631,-6.315 -1.263,-2.6663 -1.8945,-5.3326 -1.8945,-7.9989 0,-2.6664 0.5613,-5.2625 1.684,-7.7885 1.1226,-2.526 2.526,-4.5608 4.21,-6.1045 1.684,-1.5436 3.5083,-2.7364 5.4729,-3.5784 1.9647,-0.842 4.4907,-1.263 7.578,-1.263 3.0873,0 7.3404,0.3297 10.1039,2.947 0.8646,0.8188 2.0896,2.5665 1.684,5.6834 -0.2024,1.5559 -1.0525,2.7365 -2.3155,3.5785 -1.263,0.842 -3.1581,1.7081 -6.1044,0.2105 -3.1148,-1.5832 -5.5432,-0.842 -6.5255,-0.421 -0.9823,0.421 -1.5437,0.842 -1.684,1.263 -0.1403,0.421 2.8768,1.9646 9.0515,4.631 6.1746,2.6663 9.5426,4.4204 10.1039,5.2624 0.5613,0.842 0.842,1.8945 0.842,3.1575 0,1.263 -0.3508,2.526 -1.0525,3.789 -0.7017,1.263 -2.0348,2.5961 -3.9995,3.9995 -1.9646,1.4033 -6.0447,3.3732 -10.3144,3.3679 -2.3857,-0.003 -4.5608,-0.3508 -6.5255,-1.0524 z m 42.0998,0.421 c -2.673,-1.1438 -4.7175,-3.1077 -4.7175,-3.1077 0,0 -1.4743,3.2251 -5.176,3.3181 -2.538,0.0639 -4.364,-1.9342 -4.8717,-3.0635 -0.6934,-1.5424 -1.4327,-4.8003 -1.5731,-14.3429 -0.1403,-9.5426 0.621,-15.1507 1.1824,-16.2734 0.5613,-1.1226 2.1466,-3.1712 5.4729,-2.7364 1.6756,0.219 3.0172,0.842 3.9995,2.105 0.9823,1.2629 1.4735,4.9116 1.4735,10.9459 0,6.0343 0.1403,9.4023 0.421,10.1039 0.2807,0.7017 1.1227,1.5437 2.526,2.526 1.4033,0.9823 2.8768,1.4033 4.4205,1.263 1.5436,-0.1403 3.9964,-1.5027 6.1044,-1.8945 4.1123,-0.7642 5.1222,3.5785 5.2625,4.8415 0.1403,1.263 -0.2105,2.4558 -1.0525,3.5785 -0.842,1.1226 -1.9647,1.9646 -3.368,2.526 -1.4033,0.5613 -5.3716,2.2354 -10.1039,0.2105 z m 33.8903,-0.421 c -1.5437,-0.7017 -3.368,-2.4559 -3.5785,-2.7365 -0.6315,0.5613 -1.9271,3.1046 -5.8661,3.1057 -1.263,4e-4 -3.2211,-1.1546 -3.9783,-2.5281 -0.8623,-1.5642 -1.5225,-5.8401 -1.5225,-15.523 0,-9.683 0.6315,-15.156 1.8945,-16.4189 1.2629,-1.263 2.5961,-1.8945 3.9994,-1.8945 1.4034,0 2.6663,0.6315 3.789,1.8945 1.1227,1.2629 1.7542,5.1221 1.8945,11.5774 0.1403,6.4553 0.3508,9.9636 0.6315,10.5249 0.2807,0.5614 1.1227,1.263 2.526,2.105 1.4033,0.842 3.8526,1.3673 6.9464,0.2105 6.2514,-2.3375 8.2797,2.2453 8.42,3.789 0.1403,1.5436 -0.0702,2.7365 -0.6315,3.5785 -0.5613,0.842 -1.684,1.6138 -3.368,2.3155 -1.684,0.7016 -3.5785,1.0524 -5.6835,1.0524 -2.1049,0 -3.9293,-0.3508 -5.4729,-1.0524 z m -169.8725,-3.1575 c -0.2807,-0.842 -0.421,-3.9293 -0.421,-9.262 0,-5.3326 0.1403,-8.9813 0.421,-10.9459 0.2806,-1.9647 0.7718,-3.7188 1.4735,-5.2625 0.7016,-1.5436 1.684,-2.947 2.947,-4.21 1.263,-1.2629 3.0873,-2.2453 5.4729,-2.9469 2.3857,-0.7017 4.631,-0.9122 6.736,-0.6315 2.105,0.2806 3.9293,0.9823 5.473,2.105 0.7718,0.5613 1.5436,1.1226 2.3154,1.6839 0,-0.9823 0,-1.9646 0,-2.9469 0,-1.9647 -0.5613,-3.789 -1.684,-5.473 -1.1226,-1.684 -2.3154,-2.7365 -3.5784,-3.1575 -1.263,-0.421 -2.6663,-0.421 -4.21,0 -1.5437,0.421 -3.0873,1.4033 -4.631,2.947 -1.5436,1.5437 -3.0873,2.3155 -4.6309,2.3155 -1.5437,0 -2.8067,-0.5613 -3.789,-1.684 -0.9824,-1.1227 -1.4034,-2.526 -1.263,-4.21 0.1403,-1.684 0.9121,-3.368 2.3155,-5.052 1.4033,-1.6839 3.0171,-3.0171 4.8414,-3.9994 1.8244,-0.9824 7.2272,-2.2453 10.3145,-2.105 3.0873,0.1403 5.6133,0.7016 7.5779,1.684 1.9647,0.9823 3.5083,2.0348 4.631,3.1575 1.1227,1.1226 2.105,2.3856 2.947,3.7889 0.842,1.4034 1.5209,2.7275 1.8945,4.4205 1.3899,6.2997 0.6315,8.6305 0.6315,21.2604 0,12.6299 -0.7125,18.4319 -1.684,20.1543 -0.78,1.3829 -2.3158,2.1835 -3.5785,2.1585 -3.1048,-0.0614 -4.0599,-1.1504 -4.8051,-2.5664 -1.409,-2.6771 -0.9485,-3.7485 -1.0889,-10.4845 -0.1403,-6.7359 -0.7718,-10.7354 -1.8945,-11.9984 -1.1226,-1.263 -2.5259,-1.9647 -4.2099,-2.105 -1.684,-0.1403 -2.8768,-0.0702 -3.5785,0.2105 -0.7017,0.2807 -1.4735,1.0525 -2.3155,2.3155 -0.842,1.263 -1.3331,5.1923 -1.4735,11.7879 -0.1403,6.5957 -0.3162,9.3875 -1.0098,10.6928 -0.5588,1.0515 -1.9293,2.1832 -3.9897,2.2519 -5.0957,0.1699 -5.8763,-3.0512 -6.1569,-3.8932 z m 104.8284,-9.262 c -1.9647,-0.842 -3.9293,-1.684 -5.894,-2.526 -1.9647,-0.842 -3.9293,-1.6839 -5.894,-2.5259 0.2105,0.7016 -0.277,4.7898 5.3609,6.3914 4.3405,1.2331 6.2867,-1.129 6.4271,-1.3395 z"
                         style="fill:#323232;fill-opacity:1;fill-rule:nonzero;stroke:none"
                         id="path86" />
                      <path
                         d="m 535.915,306.5685 c 5.3129,0.1903 3.5821,12.606 -0.7599,12.0176 -5.0968,-0.6908 -2.7123,-12.142 0.7599,-12.0176 z m 13.1467,8.3086 c 0,-1.1226 0.1674,-2.9873 1.4761,-3.1194 1.3617,-0.1373 1.9959,1.5559 2.1363,3.0461 0.1534,1.6283 -0.6306,3.149 -1.6198,3.2182 -1.3828,0.0969 -1.9926,-2.0222 -1.9926,-3.1449 z"
                         style="fill:#323232;fill-opacity:1;fill-rule:nonzero;stroke:none"
                         id="path88" />
                      <path
                         d="m 549.92,305.0292 c 6.2377,-0.0832 7.8152,6.946 8.1054,12.9969 0.369,7.6948 -2.191,13.3002 -6.429,13.4967 -5.1994,0.2411 -7.6054,-7.0915 -7.9331,-13.4823 -0.3314,-6.461 1.5609,-12.9486 6.2567,-13.0113 z m 1.2051,22.9615 c 2.5836,-0.065 4.0782,-4.7405 3.9567,-10.1325 -0.1137,-5.0454 -1.413,-9.5789 -4.7284,-9.2441 -3.8093,0.3846 -3.8294,5.928 -3.8294,8.5943 0,2.6664 0.5406,10.8844 4.6011,10.7823 z"
                         style="fill:#e48654;fill-opacity:1;fill-rule:nonzero;stroke:none"
                         id="path90" />
                      <path
                         d="m 531.0679,299.1951 c -6.0283,-1.6066 -17.6057,-8.7149 -17.5458,-16.7198 0.1522,-20.3163 21.6195,-28.0717 22.8825,-28.5628 0.2807,4.2801 1.8967,24.6531 1.8967,24.6531 0,0 -9.0649,1.7443 -9.4019,6.7267 -0.3239,4.7877 9.5793,6.7824 14.4207,6.778 9.4148,-0.009 13.6885,-2.609 13.7437,-5.5603 0.1147,-6.1361 -10.1027,-7.6941 -10.1027,-8.1151 0,-0.421 2.3028,-24.2404 2.4432,-24.5211 0.0995,-0.199 22.2507,2.522 26.3636,26.772 1.3155,7.7563 -10.3023,15.4732 -16.6708,17.7077 -3.0999,1.0876 -7.8172,2.009 -12.5885,2.2897 -4.7713,0.2807 -11.0994,-0.2911 -15.4407,-1.4481 z"
                         style="fill:#e48654;fill-opacity:1;fill-rule:nonzero;stroke:none"
                         id="path92" />
                    </g>
                  </g>
                  <g
                     id="g104">
                    <g
                       clip-path="url(#clipPath50)"
                       id="g102">
                      <g
                         clip-path="url(#clipPath54)"
                         id="g100">
                        <path
                           d="m 526.6662,297.7041 c 0,0 -18.0382,-5.0077 -13.1443,-23.1003 2.1306,-7.8766 11.3259,-16.653 24.6644,-21.9326 -8.03,5.7665 -32.6893,22.7198 -11.5201,45.0329 z"
                           style="fill:#b66b43;fill-opacity:1;fill-rule:nonzero;stroke:none"
                           id="path98" />
                      </g>
                    </g>
                  </g>
                </g>
              </g>
            </g>
          </g>
        </g>
      </g>
    </g>
  </g>
</svg>
